<svg width="40" height="46" viewBox="0 0 40 46" fill="none" xmlns="http://www.w3.org/2000/svg">
<path d="M30.1941 21.0673C29.8431 14.5955 26.3071 10.8905 20.3705 10.8537C16.7911 10.832 13.799 12.3487 11.966 15.1285L15.2333 17.3667C16.607 15.2845 18.7758 14.8533 20.3466 14.8685C22.3031 14.8815 23.7765 15.4492 24.732 16.5585C25.4253 17.3645 25.8911 18.4803 26.123 19.8865C24.3896 19.5918 22.5133 19.5008 20.5113 19.6157C14.865 19.9407 11.238 23.234 11.4806 27.8078C11.6041 30.1283 12.759 32.126 14.735 33.4303C16.4033 34.5332 18.557 35.0705 20.7908 34.9492C23.744 34.7867 26.0601 33.66 27.6765 31.6017C28.9028 30.0373 29.6785 28.0093 30.0208 25.457C31.4291 26.3063 32.4691 27.4222 33.0476 28.7655C34.027 31.0492 34.0833 34.8018 31.0218 37.8612C28.3395 40.5392 25.1155 41.7005 20.2426 41.7352C14.8368 41.6962 10.7483 39.9607 8.09196 36.5828C5.6003 33.4195 4.31546 28.8478 4.2678 23C4.31546 17.15 5.60246 12.5805 8.09196 9.415C10.7483 6.03717 14.8368 4.30383 20.2426 4.26483C25.6875 4.306 29.8453 6.04583 32.6056 9.44317C33.9598 11.1072 34.9781 13.2002 35.652 15.6398L39.4783 14.6215C38.6615 11.6163 37.3788 9.02717 35.6346 6.88C32.0965 2.525 26.8965 0.2955 20.2296 0.25C13.5758 0.2955 8.45813 2.53583 5.0218 6.90383C1.96463 10.793 0.38513 16.2335 0.33313 23.0152C0.38513 29.7968 1.96463 35.207 5.0218 39.0962C8.4603 43.4642 13.6018 45.7045 20.2535 45.75C26.1706 45.7088 30.3393 44.1597 33.7735 40.7298C38.2693 36.2383 38.1328 30.6115 36.653 27.1578C35.5155 24.5037 33.2513 22.3782 30.1963 21.0695L30.1941 21.0673ZM20.5785 30.9408C18.1041 31.0795 15.5345 29.9702 15.4066 27.5912C15.3135 25.8275 16.6633 23.8602 20.7301 23.6262C22.5681 23.5028 24.4144 23.6296 26.2183 24.0032C25.7503 29.8575 23.0008 30.8065 20.5785 30.9408Z" fill="white"/>
</svg>
